# xmcd CD database file
#
# Track frame offsets:
#	150
#	15505
#	35612
#	54423
#	76798
#	94340
#	118065
#	141493
#	162599
#	175740
#	197035
#	218303
#	239518
#	262082
#
# Disc length: 3774 seconds
#
# Revision: 0
# Processed by: cddbd v1.5PL3 Copyright (c) Steve Scherf et al.
# Submitted via: CDex 1.50Beta7
#
DISCID=c10ebc0e
DTITLE=Eric Clapton - Reptile
DYEAR=2001
DGENRE=Blues
TTITLE0=Reptile
TTITLE1=Got you on my mind
TTITLE2=Travelin' light
TTITLE3=Believe in life
TTITLE4=Come back baby
TTITLE5=Broken down
TTITLE6=Find Myself
TTITLE7=I ain't gonna stand for it
TTITLE8=I want a little girl
TTITLE9=Second nature
TTITLE10=Don't let me be lonely tonight
TTITLE11=Modern girl
TTITLE12=Superman inside
TTITLE13=Son and Sylvia
EXTD=YEAR: 2001
EXTT0=
EXTT1=
EXTT2=
EXTT3=
EXTT4=
EXTT5=
EXTT6=
EXTT7=
EXTT8=
EXTT9=
EXTT10=
EXTT11=
EXTT12=
EXTT13=
PLAYORDER=
